<svg data-bbox="10 10 180 180" viewBox="0 0 200 200" xmlns="http://www.w3.org/2000/svg" data-type="color">
    <g>
        <path d="M190 100c0 49.6-40.4 90-90 90s-90-40.4-90-90c0-24.1 9.4-46.7 26.3-63.7 1.5-1.5 3.9-1.5 5.4 0 1.5 1.5 1.5 3.9 0 5.4-15.5 15.6-24 36.3-24 58.3 0 45.4 37 82.3 82.3 82.3s82.3-37 82.3-82.3-37-82.3-82.3-82.3c-2.1 0-3.8-1.7-3.8-3.8S97.9 10 100 10c49.6 0 90 40.4 90 90zM19.6 30.8l31.6-3.9-3.9 31.6c-.2 2.1 1.3 4 3.3 4.3h.4c1.9 0 3.5-1.4 3.8-3.3L59.4 23c.1-1.2-.2-2.3-1.1-3.2s-2-1.3-3.2-1.1l-36.5 4.6c-2.1.2-3.6 2.1-3.3 4.3.2 2 2.2 3.5 4.3 3.2zm118.2 94.1c.4.2 1 .2 1.4.2 1.5 0 3-1 3.5-2.4l13.7-35.5c.4-1.2.3-2.6-.4-3.6s-1.9-1.7-3.2-1.7h-19.6c-1.9 0-3.6 1.3-3.8 3.2-.3 2.4 1.5 4.2 3.8 4.2h14l-11.7 30.4c-.6 2.1.4 4.5 2.3 5.2zm-23.3-42.8c-2 .6-3.2 2.8-2.6 4.8l10.7 35.5c.5 1.7 2 2.8 3.6 2.8.3 0 .7 0 1.1-.2 2-.6 3.2-2.8 2.6-4.8l-10.7-35.5c-.6-2.1-2.7-3.2-4.7-2.6zM51.4 92.3c-.6 2 .4 4.2 2.5 4.8 2 .6 4.2-.4 4.8-2.4 0 0 1.7-5 6.7-5 2.4 0 4.5 1.3 5.4 3.4 1.2 2.7.3 6-2.3 8.8-7.3 7.9-16.2 17.7-16.3 17.8-1 1.2-1.3 2.4-.6 3.8.6 1.4 2 2 3.5 2h20.8c1.9 0 3.6-1.3 3.8-3.2.3-2.4-1.5-4.2-3.8-4.2H63.8c3.1-3.2 6.9-7.3 10.4-11.2 4.7-5 6.2-11.5 3.7-17-2.1-5-6.9-8-12.5-8-8.4 0-12.8 6.8-14 10.4zm53.4-6.1v22.3h2.9c1.9 0 3.6 1.3 3.8 3.2.3 2.4-1.5 4.2-3.8 4.2h-3v5.7c0 1.9-1.3 3.6-3.2 3.8-2.4.3-4.2-1.5-4.2-3.8V116H83.1c-1.4 0-2.8-.4-3.4-1.6-.6-1.3-.6-2.4.2-3.6l17.8-26.5c1-1.4 2.8-2 4.4-1.5 1.5.3 2.7 1.7 2.7 3.4zm-7.5 12.6l-7.1 9.7h7.1v-9.7z" fill="#000000" data-color="1"/>
    </g>
</svg>
