<svg data-bbox="13 38.1 174 124" viewBox="0 0 200 200" height="200" width="200" xmlns="http://www.w3.org/2000/svg" data-type="color">
    <g>
        <path d="M187 101.3l-25.7-13.6 1.4-4.1s-3.9-2.3-10.8-5c.3-4 .3-8 .3-12.3v-2.4l-1.5-1.8c-13.8-15.5-32-24-51.5-24-19.6 0-38.4 8.7-53 24.3l-1.7 1.9v2.6c0 4.5.3 8.8.8 12.9-5.2 2.2-8 4-8 4l1.4 4L13 101.3l13.8 7.5-1.8 15.7 25.3-14.6-1.8-4.3s.9-.4 2.7-.9c5.3 14.6 12.9 25.8 19.7 33.8 12.9 14.9 25.8 21.8 26.3 22.1l2.8 1.5 2.8-1.3c.5-.2 12.9-6.1 25.3-20.8 6.6-8 14.1-19.6 19-35.4 2.2.7 3.4 1.2 3.4 1.2l-1.5 4.3 26.1 14.7-1.8-15.9 13.7-7.6zM57.2 69.2c12-11.9 26.8-18.5 42.1-18.5 15 0 29.3 6.4 40.5 18 0 1.9-.2 3.7-.2 5.6-10.2-2.8-23.5-5.3-39.4-5.3h-.2c-17.6 0-31.9 2.9-42.4 6.1-.2-1.9-.4-3.9-.4-5.9zm61.5 62c-7.2 8.8-14.6 14-18.5 16.4-7.2-4.6-26.8-19.3-36.9-46.3 9.6-2.3 22.7-4.7 36.8-4.7 13.4 0 25.6 2.2 34.7 4.3-3.5 11.3-8.8 21.4-16.1 30.3z" fill="#805696" data-color="1"/>
    </g>
</svg>
